<?xml version="1.0" encoding="utf-8"?>
<!-- Generator: Adobe Illustrator 16.0.0, SVG Export Plug-In . SVG Version: 6.00 Build 0)  -->
<!DOCTYPE svg PUBLIC "-//W3C//DTD SVG 1.1//EN" "http://www.w3.org/Graphics/SVG/1.1/DTD/svg11.dtd">
<svg version="1.1" id="Layer_1" xmlns="http://www.w3.org/2000/svg" xmlns:xlink="http://www.w3.org/1999/xlink" x="0px" y="0px"
	 width="197px" height="54px" viewBox="0 0 197 54" enable-background="new 0 0 197 54" xml:space="preserve">
<g>
	<path fill-rule="evenodd" clip-rule="evenodd" d="M129.679,13.319c-2.199,0-3.87,1.002-5.123,3.007
		c-1.059,1.754-1.56,3.898-1.56,6.516c0,2.59,0.501,4.733,1.56,6.432c1.197,1.977,2.896,2.98,5.067,2.98h0.251
		c1.587,0,2.896-0.586,3.981-1.727c1.059-1.17,1.81-2.674,2.116-4.539c0-0.139-0.056-0.251-0.167-0.362
		c-0.14-0.111-0.251-0.139-0.445-0.195h-1.393c-0.334,0-0.528,0.167-0.612,0.473c-0.501,2.533-1.754,3.842-3.647,3.953
		c-1.42-0.055-2.479-0.891-3.146-2.59c-0.529-1.196-0.808-2.783-0.808-4.593c0-1.837,0.307-3.341,0.891-4.566
		c0.696-1.559,1.755-2.367,3.202-2.45c0.947,0.027,1.755,0.445,2.367,1.169c0.585,0.668,0.947,1.532,1.142,2.618
		c0.084,0.333,0.251,0.557,0.585,0.64l1.447,0.028c0.391-0.083,0.557-0.25,0.557-0.585c-0.25-1.894-0.918-3.397-2.004-4.482
		c-1.086-1.142-2.423-1.727-4.01-1.727H129.679L129.679,13.319z"/>
	<path fill-rule="evenodd" clip-rule="evenodd" d="M158.024,13.736c-0.139,0-0.25,0.028-0.39,0.139
		c-0.111,0.111-0.195,0.251-0.195,0.362v10.553c0,2.422,0.446,4.233,1.254,5.403c0.946,1.363,2.339,2.061,4.148,2.061
		c2.088,0,3.647-1.143,4.706-3.398v2.506c0,0.111,0.083,0.223,0.194,0.363c0.14,0.111,0.251,0.139,0.391,0.139h1.336
		c0.14,0,0.278-0.027,0.418-0.139l0.139-0.363V14.238l-0.167-0.334c-0.139-0.139-0.25-0.167-0.39-0.167h-1.56
		c-0.139,0-0.25,0.028-0.39,0.139c-0.111,0.111-0.194,0.223-0.194,0.362v9.161c0,1.894-0.39,3.396-1.142,4.566
		c-0.418,0.557-0.919,1.002-1.504,1.309c-0.557,0.334-1.114,0.529-1.587,0.529c-0.502,0-0.975-0.168-1.42-0.473
		c-0.418-0.336-0.752-0.781-0.975-1.254c-0.362-0.725-0.558-1.781-0.558-3.286V14.238l-0.167-0.362
		c-0.111-0.111-0.278-0.139-0.362-0.139H158.024L158.024,13.736z"/>
	<path fill-rule="evenodd" clip-rule="evenodd" d="M175.455,7.332h-1.587c-0.111,0-0.25,0.056-0.362,0.195
		c-0.139,0.056-0.194,0.223-0.194,0.334v23.5c0,0.111,0.056,0.223,0.194,0.363c0.112,0.111,0.251,0.139,0.362,0.139h1.587
		c0.14,0,0.279-0.027,0.391-0.139c0.111-0.113,0.167-0.225,0.167-0.363v-5.066l3.202-4.289l4.177,9.328
		c0.167,0.361,0.417,0.529,0.779,0.529h1.56c0.194,0,0.306-0.027,0.417-0.168c0.111-0.139,0.14-0.307,0.056-0.445l-5.207-11.109
		l4.372-5.764c0.111-0.111,0.111-0.25,0.028-0.39c-0.056-0.139-0.167-0.223-0.307-0.223h-1.615c-0.334,0-0.612,0.139-0.835,0.474
		l-6.627,8.464V7.861c0-0.111-0.056-0.278-0.167-0.39C175.706,7.388,175.595,7.332,175.455,7.332L175.455,7.332z"/>
	<path fill-rule="evenodd" clip-rule="evenodd" d="M154.294,28.994c-0.474-0.027-0.836,0.113-1.142,0.447
		c-0.335,0.277-0.502,0.639-0.502,1.086c0,0.389,0.167,0.752,0.502,1.084c0.306,0.307,0.668,0.447,1.142,0.447
		c0.445,0,0.863-0.141,1.169-0.447c0.307-0.332,0.445-0.695,0.474-1.084c-0.028-0.447-0.167-0.809-0.474-1.086
		C155.157,29.107,154.739,28.967,154.294,28.994L154.294,28.994z"/>
	<path fill-rule="evenodd" clip-rule="evenodd" d="M120.908,28.994c-0.445-0.027-0.808,0.113-1.142,0.447
		c-0.307,0.277-0.502,0.639-0.474,1.086c-0.028,0.389,0.167,0.752,0.474,1.084c0.334,0.307,0.696,0.447,1.142,0.447
		c0.473,0,0.835-0.141,1.169-0.447c0.334-0.277,0.474-0.695,0.501-1.084c-0.027-0.447-0.167-0.809-0.501-1.086
		C121.743,29.107,121.381,28.967,120.908,28.994L120.908,28.994z"/>
	<path fill-rule="evenodd" clip-rule="evenodd" d="M41.718,16.549c-0.863-2.088-2.339-3.146-4.288-3.146
		c-2.088,0-3.564,1.058-4.316,3.146H33.03v-2.2c-0.028-0.362-0.25-0.557-0.612-0.585h-3.063c-0.445,0-0.668,0.223-0.668,0.613
		v16.957c0.056,0.334,0.223,0.502,0.641,0.529l3.285-0.027c0.418,0,0.613-0.168,0.641-0.586v-8.938
		c-0.028-1.503,0.028-2.534,0.223-3.063c0.334-1.114,0.975-1.615,2.033-1.615c1.031,0,1.699,0.501,1.921,1.615
		c0.083,0.39,0.139,1.42,0.139,3.063v8.938c-0.056,0.361,0.167,0.586,0.585,0.613l3.313-0.027c0.445,0,0.612-0.168,0.612-0.586
		v-8.938c0-1.699,0.083-2.785,0.334-3.258c0.139-0.445,0.417-0.78,0.808-1.03c0.334-0.25,0.724-0.39,1.169-0.362
		c1.086,0,1.727,0.473,1.894,1.476c0.111,0.25,0.111,1.309,0.111,3.174v8.938c0,0.361,0.223,0.586,0.613,0.613l3.286-0.027
		c0.446,0,0.641-0.168,0.641-0.586V17.774c-0.083-1.058-0.39-1.894-0.808-2.506c-0.919-1.253-2.172-1.865-3.843-1.865
		c-1.03,0-1.894,0.25-2.701,0.807C42.748,14.711,42.08,15.519,41.718,16.549L41.718,16.549z"/>
	<path fill-rule="evenodd" clip-rule="evenodd" d="M72.82,13.736c-0.446,0-0.613,0.167-0.613,0.613v2.395
		c0,0.417,0.223,0.641,0.641,0.641h5.68l-6.543,9.299c-0.25,0.418-0.39,0.947-0.39,1.699v2.422c0,0.195,0.056,0.391,0.25,0.475
		c0.167,0.166,0.334,0.193,0.501,0.082c1.782-0.947,3.759-1.42,5.875-1.393c2.061,0.057,3.898,0.475,5.625,1.393l0.557-0.082
		c0.167-0.084,0.251-0.252,0.251-0.475v-2.59c-0.083-0.418-0.251-0.752-0.585-0.947c-1.643-0.918-3.731-1.363-6.209-1.279
		l5.625-8.02c0.557-0.78,0.835-1.281,0.835-1.587v-2.032c0-0.446-0.223-0.613-0.613-0.613H72.82L72.82,13.736z"/>
	<path fill-rule="evenodd" clip-rule="evenodd" d="M116.369,15.407c-0.835-1.365-2.116-2.005-3.87-2.005
		c-1.114,0-2.033,0.278-2.757,0.863c-0.668,0.557-1.253,1.364-1.727,2.562h-0.056v-2.589c-0.083-0.251-0.278-0.446-0.585-0.474
		h-3.091c-0.39,0-0.612,0.167-0.612,0.557V31.25c-0.027,0.361,0.195,0.586,0.585,0.613l3.285-0.027c0.418,0,0.613-0.168,0.669-0.586
		v-9.104c0-1.364,0.167-2.422,0.529-3.202c0.39-0.919,1.002-1.337,1.921-1.337c0.975-0.055,1.56,0.501,1.838,1.56
		c0.111,0.473,0.194,1.448,0.223,2.979v9.216c0,0.334,0.223,0.475,0.557,0.502l3.313-0.027c0.362,0,0.585-0.141,0.641-0.475V20.698
		C117.232,18.08,116.926,16.326,116.369,15.407L116.369,15.407z"/>
	<path fill-rule="evenodd" clip-rule="evenodd" fill="#F2A82F" d="M25.624,33.924c-0.167,0.25-0.111,0.5,0.195,0.752
		c3.759,3.396,7.992,6.041,12.697,7.908c4.845,1.893,9.913,2.84,15.287,2.84c3.982-0.057,7.992-0.613,12.057-1.783
		c4.232-1.279,7.88-3.035,10.859-5.262c0.473-0.363,0.64-0.725,0.334-1.143c-0.25-0.445-0.696-0.5-1.225-0.277
		c-6.906,2.924-14.034,4.344-21.357,4.344c-5.04,0-9.996-0.668-14.869-1.977c-4.733-1.281-9.133-3.064-13.17-5.43
		C26.097,33.672,25.818,33.701,25.624,33.924L25.624,33.924z"/>
	<path fill-rule="evenodd" clip-rule="evenodd" fill="#F2A82F" d="M81.953,33.422c-0.195-0.223-0.612-0.418-1.364-0.584
		l-2.534-0.223c-2.506,0.027-4.539,0.611-6.154,1.697c-0.25,0.223-0.39,0.447-0.306,0.641c0,0.168,0.167,0.252,0.473,0.195
		c4.344-0.473,6.738-0.389,7.268,0.279c0.529,0.695-0.056,3.062-1.643,7.072c-0.167,0.277-0.083,0.473,0.084,0.557
		c0.194,0.055,0.417,0.027,0.668-0.195c1.504-1.252,2.59-3.062,3.286-5.43c0.25-0.947,0.39-1.811,0.445-2.59
		C82.176,34.09,82.121,33.617,81.953,33.422L81.953,33.422z"/>
	<path fill-rule="evenodd" clip-rule="evenodd" d="M17.799,20.725l-0.668,0.084c-1.281,0.167-2.312,0.445-3.063,0.751
		c-1.114,0.501-1.949,1.169-2.562,2.061c-0.668,0.947-1.002,2.033-1.002,3.314c0,1.643,0.474,2.922,1.448,3.869
		c0.863,0.891,2.061,1.281,3.536,1.281c0.891,0,1.643-0.111,2.311-0.307c0.195-0.055,0.39-0.111,0.557-0.195
		c0.779-0.334,1.615-0.975,2.534-1.893l0.807,1.086l1.114,1.141c0.306,0.141,0.557,0.111,0.779-0.082l2.534-2.201
		c0.278-0.193,0.278-0.527,0-0.863l-0.835-1.279c-0.278-0.557-0.39-1.115-0.39-1.755v-5.151c0-1.559-0.084-2.617-0.139-3.091
		c-0.167-1.058-0.641-1.949-1.337-2.589c-1.114-1.114-2.784-1.643-4.956-1.643c-0.223,0-0.446,0-0.668,0
		c-1.531,0.083-2.84,0.445-3.926,1.086c-1.531,0.863-2.45,2.2-2.784,3.982c-0.111,0.361,0.056,0.584,0.473,0.696l3.174,0.306
		c0.334,0,0.529-0.195,0.585-0.613c0.167-0.612,0.473-1.114,1.002-1.447c0.39-0.307,0.891-0.474,1.476-0.501
		c0.056-0.028,0.111-0.028,0.167-0.028c0.863,0,1.504,0.306,1.894,0.891c0.195,0.251,0.334,0.641,0.362,1.17l0.028,1.643
		L17.799,20.725L17.799,20.725z M17.799,28.744c-0.139,0.027-0.306,0.027-0.446,0.027c-0.64,0-1.142-0.223-1.476-0.668
		c-0.362-0.389-0.557-0.975-0.557-1.727c0-1.531,0.835-2.533,2.478-2.979c0.668-0.195,1.504-0.278,2.45-0.278v0.668
		c-0.028,0.891-0.056,1.504-0.056,1.838c-0.083,0.612-0.306,1.142-0.584,1.642C19.136,28.133,18.551,28.605,17.799,28.744
		L17.799,28.744z"/>
	<path fill-rule="evenodd" clip-rule="evenodd" d="M61.121,20.725l-0.668,0.084c-1.281,0.167-2.311,0.445-3.063,0.751
		c-1.114,0.501-1.949,1.169-2.562,2.061c-0.668,0.947-1.003,2.033-1.003,3.314c0,1.643,0.474,2.922,1.448,3.869
		c0.863,0.891,2.061,1.281,3.537,1.281c0.891,0,1.643-0.111,2.311-0.307c0.195-0.055,0.39-0.111,0.557-0.195
		c0.779-0.334,1.615-0.975,2.534-1.893l0.808,1.086l1.114,1.141c0.306,0.141,0.557,0.111,0.78-0.082l2.534-2.201
		c0.278-0.193,0.278-0.527,0-0.863l-0.835-1.279c-0.278-0.557-0.39-1.115-0.39-1.755v-5.151c0-1.559-0.083-2.617-0.139-3.091
		c-0.167-1.058-0.64-1.949-1.336-2.589c-1.114-1.114-2.785-1.643-4.957-1.643c-0.223,0-0.446,0-0.668,0
		c-1.531,0.083-2.84,0.445-3.926,1.086c-1.532,0.863-2.45,2.2-2.785,3.982c-0.111,0.361,0.056,0.584,0.474,0.696l3.174,0.306
		c0.334,0,0.529-0.195,0.585-0.613c0.167-0.612,0.473-1.114,1.002-1.447c0.39-0.307,0.891-0.474,1.476-0.501
		c0.056-0.028,0.111-0.028,0.167-0.028c0.863,0,1.503,0.306,1.893,0.891c0.195,0.251,0.334,0.641,0.362,1.17l0.028,1.643
		L61.121,20.725L61.121,20.725z M61.121,28.744c-0.139,0.027-0.306,0.027-0.445,0.027c-0.641,0-1.142-0.223-1.476-0.668
		c-0.362-0.389-0.557-0.975-0.557-1.727c0-1.531,0.835-2.533,2.478-2.979c0.668-0.195,1.504-0.278,2.451-0.278v0.668
		c-0.028,0.891-0.056,1.504-0.056,1.838c-0.083,0.612-0.306,1.142-0.584,1.642C62.458,28.133,61.873,28.605,61.121,28.744
		L61.121,28.744z"/>
	<path fill-rule="evenodd" clip-rule="evenodd" d="M93.676,13.402c-2.311,0-4.177,0.919-5.513,2.729
		c-1.281,1.671-1.949,3.898-1.949,6.655c0,2.729,0.668,4.929,1.949,6.683c1.309,1.865,3.174,2.785,5.513,2.785c0,0,0.028,0,0.056,0
		c2.228-0.029,4.038-0.947,5.43-2.701c1.337-1.756,2.033-3.899,2.033-6.544c0-2.812-0.669-5.04-1.922-6.794
		c-1.364-1.865-3.23-2.812-5.541-2.812C93.704,13.402,93.676,13.402,93.676,13.402L93.676,13.402z M93.731,28.689
		c-0.028,0-0.056,0-0.056,0c-1.142,0-1.894-0.781-2.283-2.395c-0.167-0.892-0.278-2.2-0.278-4.038c0-1.476,0.111-2.646,0.362-3.453
		c0.39-1.281,1.142-1.949,2.228-1.949c0,0,0,0,0.028,0c1.03,0.028,1.754,0.612,2.116,1.698c0.334,1.058,0.474,2.534,0.474,4.456
		c0,1.587-0.111,2.84-0.362,3.647C95.542,28.021,94.79,28.689,93.731,28.689L93.731,28.689z"/>
	<path fill-rule="evenodd" clip-rule="evenodd" d="M144.715,13.319c-2.255,0.027-4.037,0.919-5.29,2.812
		c-1.281,1.727-1.866,3.898-1.866,6.571c0,2.618,0.529,4.79,1.644,6.544c1.225,2.004,2.951,3.008,5.179,3.008h0.223
		c0.028,0,0.056,0,0.111,0c2.2-0.057,3.981-1.031,5.291-2.896c1.225-1.754,1.865-3.954,1.894-6.627
		c-0.028-2.589-0.585-4.733-1.727-6.488c-1.281-1.921-2.979-2.923-5.18-2.923h-0.25H144.715L144.715,13.319z M144.715,29.941
		c-0.696-0.027-1.364-0.25-1.894-0.668c-0.64-0.418-1.113-0.975-1.447-1.67c-0.585-1.227-0.892-2.84-0.892-4.901
		c0-1.865,0.251-3.397,0.78-4.511c0.334-0.807,0.779-1.392,1.392-1.866c0.641-0.445,1.281-0.696,2.061-0.696
		c0.613,0,1.226,0.167,1.866,0.584c0.528,0.362,1.002,0.919,1.364,1.532c0.668,1.197,1.002,2.84,1.002,4.956
		c0,1.949-0.251,3.48-0.779,4.565C147.416,28.994,146.246,29.857,144.715,29.941L144.715,29.941z"/>
</g>
</svg>
