<?xml version="1.0" encoding="UTF-8" standalone="no"?>
<svg width="598px" height="150px" viewBox="0 0 598 150" version="1.1" xmlns="http://www.w3.org/2000/svg" xmlns:xlink="http://www.w3.org/1999/xlink" xmlns:sketch="http://www.bohemiancoding.com/sketch/ns">
    <!-- Generator: Sketch 3.1 (8751) - http://www.bohemiancoding.com/sketch -->
    <g id="Page-1" stroke="none" stroke-width="1" fill="none" fill-rule="evenodd" sketch:type="MSPage">
        <g id="logo" sketch:type="MSLayerGroup" fill="#0CAED0">
            <g id="Page-1" sketch:type="MSShapeGroup">
                <path d="M224.9821,71.4785962 C224.607521,67.7929665 223.175559,63.3865956 218.4,63.4 C195.858399,63.4632723 171.8,83.8 171.8,117.2 C171.8,118.554339 171.852044,119.884559 171.955727,121.185909 L171.955727,121.185909 C168.765158,127.954014 163.477435,134.2 157,134.2 C149.6,134.2 146.4,128.4 146.4,120.4 L146.4,108.8 C149,106.4 167.2,66 167.2,36.6 C167.2,25.4 167,4.4 149.4,4.4 C139.4,4.4 131.2,15 131.2,30 L131.2,102.809302 C123.905496,107.576663 115.360239,109.502179 106.185806,109.702422 C106.149413,109.703217 106.113009,109.703984 106.076596,109.704724 L106.076596,109.704724 C106.066781,109.682356 106.061621,109.67085 106.061621,109.67085 L106.015979,109.666997 C97.6095856,85.5177712 58.6,82.0598183 58.6,54.4 C58.6,32.6 83.2,15 98,15 C106,15 109,19.2 109,26 C109,39.2 94,56 83.2,56 C79.8,56 76.2077662,60.1801269 77,63.4 C77.792234,66.619873 79.2,69 86.2,69 C98.4,69 124.2,48 124.2,25.8 C124.2,10.2 114.6,0 99,0 C71.8,0 43,28 43,54.4 C43,87.2219617 74.5811954,94.2871288 86.9319791,108.185733 L86.8990813,108.086478 C51.4663298,102.183772 13.2714276,83.4462269 2.22846386,105.609973 C-6.42421875,123.434766 12.6636719,143.26875 47.8,149 C78.843461,154.063643 104.434693,137.718198 107.327752,122.269528 C107.330143,122.265657 107.332537,122.26178 107.334933,122.2579 C107.373131,122.255904 107.411332,122.253889 107.449538,122.251855 C115.245845,121.836683 123.210086,120.607783 131.2,118.236355 L131.2,118.236355 L131.2,121 C131.2,136.8 139.4,147.4 154.8,147.4 C163.909015,147.4 170.913868,142.339989 176.090375,135.930975 C180.004759,142.967233 186.559861,147.4 195.6,147.4 C203.2,147.4 208.8,143.8 212.8,139.2 C215.8,144 221.2,147.4 228.2,147.4 C238.446387,147.4 245.427854,141.012115 250.116892,133.056508 L250.116892,133.056508 C256.643557,142.482403 267.135506,147.4 278,147.4 C290.539228,147.4 299.331193,142.997876 305.4,137.002157 L305.4,138.799993 C305.4,146.199993 308.360962,147.399999 313.739258,147.399999 C319.539258,147.399999 320.6,142.6 320.6,138.8 L320.6,104.4 C326.8,83.2 335.8,76.8 340.6,76.8 C344.4,76.8 347,80.2 347,85.2 C347,103.6 328.4,110 328.4,116.2 C328.4,129.4 338.8,147.4 354.6,147.4 C364.749811,147.4 372.287145,141.117616 377.59358,133.686795 L377.59358,133.686795 C380.977403,142.212731 388.226988,147.4 399,147.4 C408.223373,147.4 415.289418,142.212142 420.484473,135.688962 C422.692958,142.489615 428.190334,147.4 436.2,147.4 C443.833137,147.4 449.614972,143.854955 454,138.757643 L454,138.757643 L454,138.800002 C454,146.200002 457.057617,147.4 461.6,147.4 C467.4,147.4 469.2,142.6 469.2,138.8 L469.2,109.6 C470.6,93.8 483,76.6 488.8,76.6 C492.6,76.6 493,81.8 493,88 L493,128.6 C493,138.8 499.2,147.4 509.8,147.4 C519.874806,147.4 526.793123,141.22426 531.479399,133.454827 C538.201466,142.477532 548.432155,147.4 559,147.4 C588.4,147.4 596.4,123.2 597.8,111 C598.6,104 587.4,100 585.6,109 C583.2,121.2 576.8,134.2 561.2,134.2 C550.8,134.2 545.4,128.6 542.6,121.8 C562,116 572.2,98.4 572.2,83.6 C572.2,71.6 565.4,63.4 554.2,63.4 C538.8,63.4 523.6,82.4 523.6,107.8 C523.6,112.105501 524.110147,116.10254 525.047693,119.769664 L525.047693,119.769664 C522.898559,127.053836 519.377526,134.2 513.4,134.2 C508.2,134.2 508.2,126.8 508.2,125 L508.2,83.6 C508.2,74.4 505,63.4 491.6,63.4 C481.8,63.4 474.6,72 469.2,83.2 L469.2,74.2 C469.2,69.4 468.100098,65.400001 461.4,65.4 C454.244087,65.3999989 454,70.4 454,74.2 L454,109.898099 C453.67924,110.647089 453.408056,111.542381 453.2,112.6 C451.4,121.4 447.8,134.2 439.8,134.2 C434.6,134.2 434.6,126.8 434.6,125 L434.6,74.2 C434.6,69.4 433.399818,65.3118547 426.8,65.4 C420.519043,65.4838867 419.4,70.4 419.4,74.2 L419.4,111.24623 C419.248949,111.718226 419.114855,112.235295 419,112.8 C417.2,121.6 410.4,134.2 401.2,134.2 C393.8,134.2 390.6,128.4 390.6,120.4 L390.6,108.8 C393.2,106.4 411.4,66 411.4,36.6 C411.4,25.4 411.2,4.4 393.6,4.4 C383.6,4.4 375.4,15 375.4,30 L375.4,110.098099 C375.07924,110.847089 374.808056,111.742381 374.6,112.8 C372.8,121.6 366,134.2 356.8,134.2 C349,134.2 344.6,126.2 342.6,117.6 C350.6,111.8 361.8,100.4 361.8,85 C361.8,73.8 356.4,63.4 344,63.4 C335,63.4 327,71.2 320.6,80 L320.6,17.6 C320.6,12.8 319.399614,8.67786465 312.8,8.8 C306.438721,8.91772461 305.4,11.8 305.4,17.6 L305.4,109 C303,121.2 295.8,134.2 280.2,134.2 C268.4,134.2 259.8,125.4 259.8,109.6 C259.8,91.6 266.8,76.8 274.2,76.8 C281,76.8 281.4,84.2 282.4,87.6 C283.563965,90.8515625 287.462402,91.53125 290.0294,90.020498 C293.08374,89.0576172 295,86.1145073 295,83 C295,76 289.8,63.4 276,63.4 C257,63.4 243.4,86.6 243.4,109.6 C243.4,112.427428 243.621933,115.104258 244.04181,117.627758 C241.965988,125.582404 238.364143,134.2 231.8,134.2 C227,134.2 225,129.4 225,125 L225,75 C225,74.9106132 224.998543,74.8215038 224.995642,74.7326925 L224.995642,76.2264267 C225.190261,76.2749813 225.217129,76.3324865 225,76.4 C224.974305,76.4079896 225.242002,74.2082495 224.995642,71.6163184 L224.995642,71.507324 L224.9821,71.4785962 L224.9821,71.4785962 Z M209.807911,77.9944048 C197.90937,82.6279958 187.2,95.4609629 187.2,117.8 C187.2,128.2 191.6,134.2 198.6,134.2 C204,134.2 207.6,129.4 209.8,123.8 L209.8,77.9657048 L209.807911,77.9944048 L209.807911,77.9944048 Z M91.4949265,121.952451 C89.0205872,129.929044 71.7190127,137.612284 47.8,134 C21.9292969,130.092969 13.3238281,120.010938 16.2476562,112.053906 C20.8801286,100.488943 52.6415176,119.189402 91.5862694,122.05618 L91.5237793,122.039502 L91.4949265,121.952451 L91.4949265,121.952451 Z M552.4,76.8 C555,76.8 556.6,79.4 556.6,83.8 C556.6,95.8 550.2,106.2 540.2,110.8 C540.2,109.6 540,108.4 540,107.2 C539.6,98.8 542.6,76.8 552.4,76.8 L552.4,76.8 Z M430,45.6 C437,45.6 442.2,40 442.2,33.4 C442.2,26.4 437,21.2 430,21.2 C423.4,21.2 418,26.4 418,33.4 C418,40 423.4,45.6 430,45.6 L430,45.6 Z M390.6,25.6 C390.6,22.4 391.4,17.6 393.6,17.6 C396.8,17.6 399,23.6 399,36.8 C399,47.8 394.8,74.2 390.6,82.6 L390.6,25.6 L390.6,25.6 Z M146.4,25.6 C146.4,22.4 147.2,17.6 149.4,17.6 C152.6,17.6 154.8,23.6 154.8,36.8 C154.8,47.8 150.6,74.2 146.4,82.6 L146.4,25.6 L146.4,25.6 Z" id="Path-copy-2"></path>
            </g>
        </g>
    </g>
</svg>
