<?xml version="1.0" encoding="utf-8"?>
<!-- Generator: Adobe Illustrator 16.0.0, SVG Export Plug-In . SVG Version: 6.00 Build 0)  -->
<!DOCTYPE svg PUBLIC "-//W3C//DTD SVG 1.1//EN" "http://www.w3.org/Graphics/SVG/1.1/DTD/svg11.dtd">
<svg version="1.1" id="Layer_4" xmlns="http://www.w3.org/2000/svg" xmlns:xlink="http://www.w3.org/1999/xlink" x="0px" y="0px"
	 width="540.75px" height="89.25px" viewBox="0 0 540.75 89.25" enable-background="new 0 0 540.75 89.25" xml:space="preserve">
<g id="XMLID_6_">
	<path id="XMLID_3_" fill="#757575" d="M140.095,46.276c0,8.127-2.401,14.629-7.24,19.468c-5.467,5.763-12.597,8.644-21.389,8.644
		c-8.422,0-15.552-2.918-21.462-8.754c-5.874-5.836-8.829-13.077-8.829-21.684s2.956-15.848,8.829-21.684s13.04-8.755,21.462-8.755
		c4.175,0,8.165,0.813,11.969,2.438c3.805,1.627,6.834,3.805,9.124,6.502l-5.134,5.135c-3.878-4.654-9.198-6.943-15.995-6.943
		c-6.132,0-11.452,2.143-15.921,6.463c-4.47,4.322-6.724,9.901-6.724,16.808c0,6.908,2.253,12.485,6.724,16.808
		c4.47,4.321,9.789,6.464,15.921,6.464c6.501,0,11.932-2.179,16.291-6.501c2.807-2.809,4.433-6.761,4.876-11.785H111.43v-7.018
		h28.222C139.948,43.396,140.095,44.873,140.095,46.276L140.095,46.276z"/>
	<path id="XMLID_20_" fill="#757575" d="M147.631,73.06V14.767h17.805c8.94,0,16.106,2.698,21.5,8.092
		c5.356,5.393,8.052,12.412,8.052,21.055c0,8.644-2.697,15.626-8.052,21.055c-5.356,5.395-12.522,8.092-21.5,8.092H147.631z
		 M155.13,65.892h10.344c6.724,0,12.042-1.92,15.995-5.762c3.915-3.842,5.91-9.235,5.91-16.18c0-6.908-1.959-12.264-5.91-16.143
		c-3.953-3.879-9.272-5.837-15.995-5.837h-10.343L155.13,65.892L155.13,65.892z"/>
	<path id="XMLID_23_" fill="#757575" d="M258.71,46.276c0,8.127-2.4,14.629-7.24,19.468c-5.467,5.763-12.597,8.644-21.389,8.644
		c-8.423,0-15.552-2.918-21.462-8.754c-5.874-5.836-8.829-13.077-8.829-21.684s2.955-15.848,8.829-21.684
		c5.875-5.837,13.04-8.755,21.462-8.755c4.175,0,8.165,0.813,11.968,2.438c3.806,1.627,6.836,3.805,9.125,6.502l-5.135,5.135
		c-3.879-4.654-9.198-6.943-15.995-6.943c-6.133,0-11.452,2.143-15.921,6.463c-4.471,4.322-6.724,9.901-6.724,16.808
		c0,6.908,2.253,12.485,6.724,16.808c4.469,4.321,9.788,6.464,15.921,6.464c6.501,0,11.931-2.179,16.29-6.501
		c2.808-2.809,4.433-6.761,4.876-11.785h-21.166v-7.018h28.223C258.563,43.396,258.71,44.873,258.71,46.276L258.71,46.276z"/>
	<g>
		<path fill="#757575" d="M286.335,73.043V16.551h7.259v49.55h24.459v6.942H286.335z"/>
		<path fill="#757575" d="M327.757,38.997c3.734-3.918,8.494-5.877,14.28-5.877s10.546,1.959,14.281,5.877
			c3.735,3.92,5.604,8.825,5.604,14.716c0,5.892-1.868,10.797-5.604,14.714c-3.735,3.92-8.495,5.877-14.281,5.877
			s-10.546-1.958-14.28-5.877c-3.736-3.917-5.603-8.822-5.603-14.714C322.155,47.822,324.021,42.917,327.757,38.997z
			 M333.161,63.852c2.498,2.552,5.456,3.825,8.876,3.825c3.419,0,6.378-1.274,8.876-3.825c2.498-2.552,3.748-5.932,3.748-10.139
			c0-4.208-1.25-7.587-3.748-10.139s-5.457-3.827-8.876-3.827c-3.42,0-6.378,1.275-8.876,3.827
			c-2.499,2.552-3.747,5.931-3.747,10.139S330.662,61.3,333.161,63.852z"/>
		<path fill="#757575" d="M374.703,34.382v5.365h0.315c1.052-1.841,2.708-3.405,4.971-4.695c2.261-1.287,4.681-1.932,7.259-1.932
			c4.785,0,8.443,1.473,10.968,4.418c2.525,2.946,3.787,6.892,3.787,11.835v23.67h-7.259V50.479c0-7.153-3.184-10.73-9.547-10.73
			c-3,0-5.444,1.196-7.338,3.589c-1.894,2.396-2.841,5.169-2.841,8.324v21.383h-7.259V34.383L374.703,34.382L374.703,34.382z"/>
		<path fill="#757575" d="M426.697,74.306c-4.998,0-9.31-1.973-12.939-5.918c-3.63-3.944-5.444-8.836-5.444-14.674
			c0-5.839,1.815-10.73,5.444-14.676c3.63-3.944,7.941-5.917,12.939-5.917c2.945,0,5.589,0.632,7.931,1.894
			c2.34,1.263,4.09,2.84,5.246,4.734h0.314l-0.314-5.365V16.552h7.259v56.492h-6.944v-5.363h-0.314
			c-1.158,1.893-2.907,3.471-5.246,4.732C432.286,73.675,429.643,74.306,426.697,74.306z M427.881,67.679
			c3.417,0,6.322-1.264,8.718-3.789c2.394-2.524,3.59-5.917,3.59-10.177c0-4.261-1.196-7.655-3.59-10.179
			c-2.396-2.524-5.301-3.787-8.718-3.787c-3.367,0-6.261,1.275-8.68,3.827c-2.421,2.552-3.63,5.931-3.63,10.139
			c0,4.207,1.209,7.587,3.63,10.139C421.62,66.403,424.514,67.679,427.881,67.679z"/>
		<path fill="#757575" d="M458.967,38.997c3.735-3.918,8.494-5.877,14.282-5.877c5.785,0,10.545,1.959,14.281,5.877
			c3.733,3.92,5.602,8.825,5.602,14.716c0,5.892-1.868,10.797-5.602,14.714c-3.736,3.92-8.496,5.877-14.281,5.877
			c-5.788,0-10.547-1.958-14.282-5.877c-3.735-3.917-5.602-8.822-5.602-14.714C453.365,47.822,455.231,42.917,458.967,38.997z
			 M464.37,63.852c2.499,2.552,5.458,3.825,8.877,3.825s6.377-1.274,8.876-3.825c2.498-2.552,3.748-5.932,3.748-10.139
			c0-4.208-1.25-7.587-3.748-10.139c-2.499-2.552-5.457-3.827-8.876-3.827s-6.378,1.275-8.877,3.827
			c-2.498,2.552-3.746,5.931-3.746,10.139S461.873,61.3,464.37,63.852z"/>
		<path fill="#757575" d="M505.913,34.382v5.365h0.315c1.053-1.841,2.708-3.405,4.972-4.695c2.261-1.287,4.681-1.932,7.259-1.932
			c4.784,0,8.442,1.473,10.967,4.418c2.525,2.946,3.787,6.892,3.787,11.835v23.67h-7.259V50.479c0-7.153-3.183-10.73-9.547-10.73
			c-2.999,0-5.443,1.196-7.337,3.589c-1.895,2.396-2.841,5.169-2.841,8.324v21.383h-7.259V34.383L505.913,34.382L505.913,34.382z"/>
	</g>
</g>
<g id="XMLID_261_">
	<path id="XMLID_259_" fill="#757575" d="M19.079,7.711H7.147l34.096,59.104l5.984-10.343L19.079,7.711z"/>
	<path id="XMLID_258_" fill="#757575" d="M51.808,41.327L32.378,7.711H20.483L47.93,55.29l3.878-6.724
		c0.628-1.034,1.034-2.29,1.034-3.62C52.806,43.618,52.436,42.398,51.808,41.327z"/>
	<path id="XMLID_257_" fill="#757575" d="M27.945,46.167L7.48,81.592h11.932L33.93,56.474L27.945,46.167z"/>
	<path id="XMLID_256_" fill="#757575" d="M34.594,57.692L20.815,81.592H32.71l7.868-13.594L34.594,57.692L34.594,57.692z"/>
</g>
</svg>
