<?xml version="1.0" encoding="utf-8"?>
<!-- Generator: Adobe Illustrator 16.0.0, SVG Export Plug-In . SVG Version: 6.00 Build 0)  -->
<!DOCTYPE svg PUBLIC "-//W3C//DTD SVG 1.1//EN" "http://www.w3.org/Graphics/SVG/1.1/DTD/svg11.dtd">
<svg version="1.1" id="Layer_4" xmlns="http://www.w3.org/2000/svg" xmlns:xlink="http://www.w3.org/1999/xlink" x="0px" y="0px"
	 width="553.185px" height="143.771px" viewBox="0 0 553.185 143.771" enable-background="new 0 0 553.185 143.771"
	 xml:space="preserve">
<g id="XMLID_60_">
	<g id="XMLID_61_">
		<g id="XMLID_62_">
			<path id="XMLID_106_" fill="none" d="M91.39,63.863l-33.54-58H13l37.02,64l-37.02,64h44.85l33.54-58
				C93.54,72.153,93.54,67.573,91.39,63.863z"/>
			<polygon id="XMLID_105_" fill="#FFC107" points="72.15,108.133 61.52,89.743 36,133.863 57.85,133.863 72.44,108.633 			"/>
			<path id="XMLID_104_" fill="none" d="M91.39,63.863l-33.54-58H13l37.02,64l-37.02,64h44.85l33.54-58
				C93.54,72.153,93.54,67.573,91.39,63.863z"/>
			<polygon id="XMLID_103_" fill="#0F9D58" points="50.02,69.863 61.52,89.743 36,133.863 13,133.863 			"/>
			<path id="XMLID_102_" fill="none" d="M91.39,63.863l-33.54-58H13l37.02,64l-37.02,64h44.85l33.54-58
				C93.54,72.153,93.54,67.573,91.39,63.863z"/>
			<polygon id="XMLID_101_" opacity="0.2" fill="#BF360C" enable-background="new    " points="57.85,132.863 36.58,132.863 
				36,133.863 57.85,133.863 72.44,108.633 72.15,108.133 			"/>
			<path id="XMLID_100_" fill="none" d="M91.39,63.863l-33.54-58H13l37.02,64l-37.02,64h44.85l33.54-58
				C93.54,72.153,93.54,67.573,91.39,63.863z"/>
			<polygon id="XMLID_99_" opacity="0.2" fill="#263238" enable-background="new    " points="13.58,132.863 13,133.863 36,133.863 
				36.58,132.863 			"/>
			<path id="XMLID_98_" fill="none" d="M91.39,63.863l-33.54-58H13l37.02,64l-37.02,64h44.85l33.54-58
				C93.54,72.153,93.54,67.573,91.39,63.863z"/>
			<polygon id="XMLID_96_" opacity="0.2" fill="#FFFFFF" enable-background="new    " points="13,133.863 13.58,133.863 
				50.31,70.363 50.02,69.863 			"/>
			<path id="XMLID_94_" fill="none" d="M91.39,63.863l-33.54-58H13l37.02,64l-37.02,64h44.85l33.54-58
				C93.54,72.153,93.54,67.573,91.39,63.863z"/>
			
				<radialGradient id="XMLID_2_" cx="72.2773" cy="2694.9487" r="44.2638" gradientTransform="matrix(1 0 0 -1 0 2803.1865)" gradientUnits="userSpaceOnUse">
				<stop  offset="0" style="stop-color:#BF360C;stop-opacity:0.2"/>
				<stop  offset="1" style="stop-color:#BF360C;stop-opacity:0.02"/>
			</radialGradient>
			<polygon id="XMLID_92_" fill="url(#XMLID_2_)" points="72.44,108.633 72.44,108.633 61.52,89.743 58.84,94.374 			"/>
			<path id="XMLID_90_" fill="none" d="M91.39,63.863l-33.54-58H13l37.02,64l-37.02,64h44.85l33.54-58
				C93.54,72.153,93.54,67.573,91.39,63.863z"/>
			
				<radialGradient id="XMLID_3_" cx="72.1509" cy="2694.6685" r="44.6244" gradientTransform="matrix(1 0 0 -1 0 2803.1865)" gradientUnits="userSpaceOnUse">
				<stop  offset="0" style="stop-color:#263238;stop-opacity:0.2"/>
				<stop  offset="1" style="stop-color:#263238;stop-opacity:0.02"/>
			</radialGradient>
			<polygon id="XMLID_89_" fill="url(#XMLID_3_)" points="58.84,94.374 61.52,89.743 50.02,69.863 44.53,79.363 			"/>
			<path id="XMLID_88_" fill="none" d="M91.39,63.863l-33.54-58H13l37.02,64l-37.02,64h44.85l33.54-58
				C93.54,72.153,93.54,67.573,91.39,63.863z"/>
			<g id="XMLID_85_">
				<g id="XMLID_86_">
					<polygon id="XMLID_87_" fill="#4285F4" points="36,5.863 13,5.863 72.44,108.633 83.93,88.763 83.94,88.743 					"/>
				</g>
			</g>
			<path id="XMLID_84_" fill="none" d="M91.39,63.863l-33.54-58H13l37.02,64l-37.02,64h44.85l33.54-58
				C93.54,72.153,93.54,67.573,91.39,63.863z"/>
			<path id="XMLID_83_" fill="#DB4437" d="M91.39,75.863c2.15-3.71,2.15-8.29,0-12l-33.54-58H36l47.94,82.88L91.39,75.863z"/>
			<path id="XMLID_82_" fill="none" d="M91.39,63.863l-33.54-58H13l37.02,64l-37.02,64h44.85l33.54-58
				C93.54,72.153,93.54,67.573,91.39,63.863z"/>
			<polygon id="XMLID_71_" opacity="0.2" fill="#1A237E" enable-background="new    " points="83.94,88.743 83.65,88.253 
				72.44,107.633 13.58,5.863 13,5.863 72.44,108.633 83.93,88.763 			"/>
			<path id="XMLID_69_" fill="none" d="M91.39,63.863l-33.54-58H13l37.02,64l-37.02,64h44.85l33.54-58
				C93.54,72.153,93.54,67.573,91.39,63.863z"/>
			<path id="XMLID_67_" opacity="0.2" fill="#FFFFFF" enable-background="new    " d="M57.85,6.863l33.54,58
				c0.99,1.71,1.5,3.6,1.58,5.5c0.09-2.24-0.42-4.5-1.58-6.5l-33.54-58H13l0.58,1H57.85z"/>
			<path id="XMLID_66_" fill="none" d="M91.39,63.863l-33.54-58H13l37.02,64l-37.02,64h44.85l33.54-58
				C93.54,72.153,93.54,67.573,91.39,63.863z"/>
			<path id="XMLID_65_" opacity="0.2" fill="#3E2723" enable-background="new    " d="M83.94,88.743l7.45-12.88
				c1.16-2,1.67-4.26,1.58-6.5c-0.08,1.9-0.59,3.79-1.58,5.5l-7.74,13.39L83.94,88.743z"/>
			<path id="XMLID_64_" fill="none" d="M91.39,63.863l-33.54-58H13l37.02,64l-37.02,64h44.85l33.54-58
				C93.54,72.153,93.54,67.573,91.39,63.863z"/>
			
				<radialGradient id="XMLID_4_" cx="11.9995" cy="2796.3237" r="134.3511" gradientTransform="matrix(1 0 0 -1 0 2803.1865)" gradientUnits="userSpaceOnUse">
				<stop  offset="0" style="stop-color:#FFFFFF;stop-opacity:0.1"/>
				<stop  offset="1" style="stop-color:#FFFFFF;stop-opacity:0"/>
			</radialGradient>
			<path id="XMLID_63_" fill="url(#XMLID_4_)" d="M91.39,63.863l-33.54-58H13l37.02,64l-37.02,64h44.85l33.54-58
				C93.54,72.153,93.54,67.573,91.39,63.863z"/>
		</g>
	</g>
</g>
<g>
	<path fill="#FAFAFA" d="M173.299,39.03c0,7-2.077,12.577-6.23,16.73c-4.714,4.947-10.85,7.42-18.41,7.42
		c-7.234,0-13.382-2.508-18.445-7.525c-5.064-5.016-7.595-11.235-7.595-18.655s2.531-13.638,7.595-18.655
		c5.063-5.016,11.211-7.525,18.445-7.525c3.593,0,7.023,0.7,10.29,2.1c3.266,1.4,5.88,3.267,7.84,5.6l-4.41,4.41
		c-3.314-3.966-7.887-5.95-13.72-5.95c-5.274,0-9.835,1.855-13.685,5.565c-3.85,3.71-5.775,8.529-5.775,14.455
		c0,5.927,1.925,10.745,5.775,14.455c3.85,3.71,8.411,5.565,13.685,5.565c5.6,0,10.266-1.866,14-5.6
		c2.426-2.426,3.826-5.81,4.2-10.15h-18.2v-6.02h24.29C173.182,36.557,173.299,37.817,173.299,39.03z"/>
	<path fill="#FAFAFA" d="M179.683,62.06V11.94h15.33c7.7,0,13.86,2.322,18.48,6.965c4.62,4.644,6.93,10.675,6.93,18.095
		s-2.31,13.452-6.93,18.095c-4.62,4.644-10.78,6.965-18.48,6.965H179.683z M186.123,55.9h8.89c5.786,0,10.371-1.656,13.755-4.97
		c3.383-3.313,5.075-7.956,5.075-13.93c0-5.926-1.692-10.558-5.075-13.895c-3.384-3.336-7.969-5.005-13.755-5.005h-8.89V55.9z"/>
	<path fill="#FAFAFA" d="M275.092,39.03c0,7-2.077,12.577-6.23,16.73c-4.714,4.947-10.85,7.42-18.41,7.42
		c-7.234,0-13.382-2.508-18.445-7.525c-5.064-5.016-7.595-11.235-7.595-18.655s2.531-13.638,7.595-18.655
		c5.063-5.016,11.211-7.525,18.445-7.525c3.593,0,7.023,0.7,10.29,2.1c3.266,1.4,5.88,3.267,7.84,5.6l-4.41,4.41
		c-3.314-3.966-7.887-5.95-13.72-5.95c-5.274,0-9.835,1.855-13.685,5.565c-3.85,3.71-5.775,8.529-5.775,14.455
		c0,5.927,1.925,10.745,5.775,14.455c3.85,3.71,8.411,5.565,13.685,5.565c5.6,0,10.266-1.866,14-5.6
		c2.426-2.426,3.826-5.81,4.2-10.15h-18.2v-6.02h24.29C274.975,36.557,275.092,37.817,275.092,39.03z"/>
	<path fill="#FAFAFA" d="M298.331,62.06V11.94h15.33c7.7,0,13.86,2.322,18.48,6.965c4.62,4.644,6.93,10.675,6.93,18.095
		s-2.31,13.452-6.93,18.095c-4.62,4.644-10.78,6.965-18.48,6.965H298.331z M304.771,55.9h8.89c5.786,0,10.371-1.656,13.755-4.97
		c3.383-3.313,5.075-7.956,5.075-13.93c0-5.926-1.692-10.558-5.075-13.895c-3.384-3.336-7.969-5.005-13.755-5.005h-8.89V55.9z"/>
	<path fill="#FAFAFA" d="M360.147,63.18c-5.18,0-9.392-1.726-12.635-5.18c-3.244-3.453-4.865-7.816-4.865-13.09
		c0-4.993,1.575-9.286,4.725-12.88c3.15-3.593,7.175-5.39,12.075-5.39c5.086,0,9.158,1.657,12.215,4.97
		c3.056,3.314,4.585,7.747,4.585,13.3l-0.07,1.19h-27.09c0.186,3.454,1.341,6.184,3.465,8.19c2.123,2.007,4.608,3.01,7.455,3.01
		c4.62,0,7.746-1.96,9.38-5.88l5.74,2.38c-1.12,2.66-2.964,4.889-5.53,6.685C367.03,62.281,363.88,63.18,360.147,63.18z
		 M369.388,40.78c-0.14-1.96-1.039-3.826-2.695-5.6c-1.657-1.773-4.119-2.66-7.385-2.66c-2.38,0-4.445,0.747-6.195,2.24
		c-1.75,1.494-2.952,3.5-3.605,6.02H369.388z"/>
	<path fill="#FAFAFA" d="M389.778,62.06l-13.86-34.3h7l10.08,26.6h0.14l10.22-26.6h6.86l-14,34.3H389.778z"/>
	<path fill="#FAFAFA" d="M420.445,62.06h-6.441V11.94h29.259v6.16h-22.818v16.45h20.578v6.02h-20.578V62.06z"/>
	<path fill="#FAFAFA" d="M462.702,63.18c-5.18,0-9.392-1.726-12.635-5.18c-3.244-3.453-4.865-7.816-4.865-13.09
		c0-4.993,1.575-9.286,4.725-12.88c3.15-3.593,7.176-5.39,12.075-5.39c5.086,0,9.158,1.657,12.215,4.97
		c3.057,3.314,4.585,7.747,4.585,13.3l-0.069,1.19h-27.09c0.186,3.454,1.341,6.184,3.465,8.19c2.123,2.007,4.607,3.01,7.455,3.01
		c4.62,0,7.746-1.96,9.38-5.88l5.74,2.38c-1.12,2.66-2.965,4.889-5.53,6.685C469.584,62.281,466.435,63.18,462.702,63.18z
		 M471.942,40.78c-0.141-1.96-1.039-3.826-2.695-5.6c-1.657-1.773-4.119-2.66-7.385-2.66c-2.38,0-4.445,0.747-6.195,2.24
		c-1.75,1.494-2.952,3.5-3.604,6.02H471.942z"/>
	<path fill="#FAFAFA" d="M495.889,63.18c-3.827,0-6.989-0.934-9.485-2.8c-2.497-1.866-4.329-4.2-5.495-7l5.74-2.38
		c1.82,4.294,4.923,6.44,9.311,6.44c2.006,0,3.65-0.443,4.935-1.33c1.283-0.886,1.925-2.053,1.925-3.5
		c0-2.24-1.563-3.756-4.689-4.55l-6.931-1.68c-2.193-0.56-4.27-1.621-6.229-3.185c-1.96-1.562-2.94-3.675-2.94-6.335
		c0-3.033,1.341-5.495,4.025-7.385c2.683-1.89,5.868-2.835,9.555-2.835c3.033,0,5.74,0.689,8.12,2.065
		c2.38,1.377,4.083,3.349,5.11,5.915l-5.601,2.31c-1.26-3.033-3.874-4.55-7.84-4.55c-1.914,0-3.524,0.397-4.83,1.19
		c-1.307,0.794-1.96,1.867-1.96,3.22c0,1.96,1.516,3.29,4.55,3.99l6.79,1.61c3.221,0.747,5.601,2.03,7.141,3.85
		c1.54,1.82,2.31,3.874,2.31,6.16c0,3.08-1.26,5.647-3.78,7.7C503.099,62.153,499.855,63.18,495.889,63.18z"/>
	<path fill="#FAFAFA" d="M528.767,62.62c-3.594,0-6.335-0.956-8.225-2.87c-1.891-1.913-2.835-4.62-2.835-8.12V33.64h-6.021v-5.88
		h6.021v-10.5h6.439v10.5h8.4v5.88h-8.4v17.5c0,3.734,1.54,5.6,4.62,5.6c1.166,0,2.146-0.186,2.94-0.56l2.24,5.53
		C532.547,62.316,530.82,62.62,528.767,62.62z"/>
	<path fill="#FAFAFA" d="M125.069,128.06V77.94h6.44v43.96h21.7v6.16H125.069z"/>
	<path fill="#FAFAFA" d="M159.746,97.855c3.313-3.476,7.536-5.215,12.67-5.215c5.133,0,9.356,1.739,12.67,5.215
		c3.313,3.477,4.97,7.829,4.97,13.055c0,5.227-1.657,9.579-4.97,13.055c-3.314,3.477-7.537,5.215-12.67,5.215
		c-5.134,0-9.357-1.738-12.67-5.215c-3.314-3.476-4.97-7.828-4.97-13.055C154.776,105.684,156.432,101.332,159.746,97.855z
		 M164.541,119.905c2.216,2.264,4.841,3.395,7.875,3.395c3.033,0,5.658-1.131,7.875-3.395c2.216-2.263,3.325-5.261,3.325-8.995
		c0-3.733-1.109-6.731-3.325-8.995c-2.217-2.263-4.842-3.395-7.875-3.395c-3.034,0-5.659,1.132-7.875,3.395
		c-2.217,2.264-3.325,5.262-3.325,8.995C161.216,114.644,162.324,117.642,164.541,119.905z"/>
	<path fill="#FAFAFA" d="M200.822,93.76v4.76h0.28c0.933-1.633,2.403-3.021,4.41-4.165c2.006-1.143,4.153-1.715,6.44-1.715
		c4.246,0,7.49,1.307,9.73,3.92c2.24,2.614,3.36,6.114,3.36,10.5v21h-6.44v-20.02c0-6.346-2.824-9.52-8.47-9.52
		c-2.66,0-4.83,1.062-6.51,3.185c-1.68,2.124-2.52,4.585-2.52,7.385v18.97h-6.44v-34.3H200.822z"/>
	<path fill="#FAFAFA" d="M245.705,129.18c-4.434,0-8.26-1.75-11.48-5.25c-3.22-3.5-4.83-7.84-4.83-13.02
		c0-5.18,1.61-9.52,4.83-13.02c3.22-3.5,7.046-5.25,11.48-5.25c2.613,0,4.958,0.56,7.035,1.68c2.076,1.12,3.628,2.52,4.655,4.2h0.28
		l-0.28-4.76V77.94h6.44v50.12h-6.16v-4.76h-0.28c-1.027,1.68-2.579,3.08-4.655,4.2C250.663,128.62,248.318,129.18,245.705,129.18z
		 M246.755,123.3c3.033,0,5.611-1.12,7.735-3.36c2.123-2.24,3.185-5.25,3.185-9.03c0-3.78-1.062-6.79-3.185-9.03
		c-2.124-2.24-4.702-3.36-7.735-3.36c-2.987,0-5.554,1.132-7.7,3.395c-2.147,2.264-3.22,5.262-3.22,8.995
		c0,3.734,1.073,6.732,3.22,8.995C241.201,122.169,243.768,123.3,246.755,123.3z"/>
	<path fill="#FAFAFA" d="M273.453,97.855c3.313-3.476,7.536-5.215,12.67-5.215c5.133,0,9.356,1.739,12.67,5.215
		c3.313,3.477,4.97,7.829,4.97,13.055c0,5.227-1.657,9.579-4.97,13.055c-3.314,3.477-7.537,5.215-12.67,5.215
		c-5.134,0-9.357-1.738-12.67-5.215c-3.314-3.476-4.97-7.828-4.97-13.055C268.482,105.684,270.138,101.332,273.453,97.855z
		 M278.248,119.905c2.216,2.264,4.841,3.395,7.875,3.395c3.033,0,5.658-1.131,7.875-3.395c2.216-2.263,3.325-5.261,3.325-8.995
		c0-3.733-1.109-6.731-3.325-8.995c-2.217-2.263-4.842-3.395-7.875-3.395c-3.034,0-5.659,1.132-7.875,3.395
		c-2.217,2.264-3.325,5.262-3.325,8.995C274.922,114.644,276.03,117.642,278.248,119.905z"/>
	<path fill="#FAFAFA" d="M314.528,93.76v4.76h0.28c0.933-1.633,2.403-3.021,4.41-4.165c2.006-1.143,4.153-1.715,6.44-1.715
		c4.246,0,7.49,1.307,9.73,3.92c2.24,2.614,3.36,6.114,3.36,10.5v21h-6.44v-20.02c0-6.346-2.824-9.52-8.47-9.52
		c-2.66,0-4.83,1.062-6.51,3.185c-1.68,2.124-2.52,4.585-2.52,7.385v18.97h-6.44v-34.3H314.528z"/>
	<path fill="#FAFAFA" d="M391.106,128.06h-30.52v-6.44c9.146-9.193,15.003-15.19,17.57-17.99c2.286-2.566,3.826-4.515,4.62-5.845
		c0.793-1.33,1.19-2.975,1.19-4.935c0-2.006-0.794-3.78-2.38-5.32c-1.587-1.54-3.71-2.31-6.37-2.31c-2.427,0-4.387,0.712-5.88,2.135
		c-1.494,1.424-2.45,2.952-2.87,4.585l-5.88-2.38c0.793-2.52,2.45-4.9,4.97-7.14c2.52-2.24,5.786-3.36,9.8-3.36
		c4.433,0,8.073,1.354,10.92,4.06c2.846,2.707,4.27,5.95,4.27,9.73c0,4.667-2.544,9.66-7.63,14.98l-14,14.07h22.19V128.06z"/>
	<path fill="#FAFAFA" d="M427.974,121.97c-3.547,4.807-8.189,7.21-13.929,7.21c-5.74,0-10.384-2.403-13.93-7.21
		c-3.547-4.806-5.32-10.756-5.32-17.85c0-7.14,1.773-13.101,5.32-17.885c3.546-4.783,8.19-7.175,13.93-7.175
		c5.74,0,10.382,2.392,13.929,7.175c3.547,4.784,5.32,10.745,5.32,17.885C433.294,111.214,431.521,117.164,427.974,121.97z
		 M414.045,123.02c3.826,0,6.894-1.796,9.205-5.39c2.311-3.593,3.465-8.096,3.465-13.51c0-5.46-1.154-9.975-3.465-13.545
		c-2.311-3.57-5.379-5.355-9.205-5.355c-3.874,0-6.954,1.785-9.24,5.355c-2.287,3.57-3.43,8.085-3.43,13.545
		c0,5.414,1.143,9.917,3.43,13.51C407.091,121.224,410.171,123.02,414.045,123.02z"/>
	<path fill="#FAFAFA" d="M453.727,128.06h-6.44v-39.9l-9.31,4.06l-2.45-5.46l14.07-6.58h4.13V128.06z"/>
	<path fill="#FAFAFA" d="M478.122,97.47c3.732,0,7.162,1.529,10.29,4.585c3.126,3.057,4.689,6.755,4.689,11.095
		c0,4.247-1.622,7.98-4.865,11.2c-3.244,3.22-7.082,4.83-11.515,4.83c-4.76,0-8.692-1.621-11.795-4.865
		c-3.104-3.243-4.655-6.965-4.655-11.165c0-4.433,1.866-9.38,5.601-14.84l13.02-19.25l5.18,3.57l-11.409,15.82l0.14,0.14
		C473.967,97.844,475.741,97.47,478.122,97.47z M476.721,122.95c2.706,0,5.028-0.933,6.965-2.8c1.937-1.866,2.905-4.176,2.905-6.93
		c0-2.706-0.969-5.005-2.905-6.895c-1.937-1.89-4.259-2.835-6.965-2.835c-2.707,0-5.04,0.945-7,2.835
		c-1.96,1.89-2.94,4.189-2.94,6.895c0,2.754,0.969,5.064,2.905,6.93C471.623,122.017,473.967,122.95,476.721,122.95z"/>
</g>
</svg>
